<svg width="36" height="36" viewBox="0 0 36 36" fill="none" xmlns="http://www.w3.org/2000/svg">
<g id="bi:code-square" clip-path="url(#clip0_12_867)">
<g id="Group">
<path id="Vector" d="M31.5 2.25C32.0967 2.25 32.669 2.48705 33.091 2.90901C33.5129 3.33097 33.75 3.90326 33.75 4.5V31.5C33.75 32.0967 33.5129 32.669 33.091 33.091C32.669 33.5129 32.0967 33.75 31.5 33.75H4.5C3.90326 33.75 3.33097 33.5129 2.90901 33.091C2.48705 32.669 2.25 32.0967 2.25 31.5V4.5C2.25 3.90326 2.48705 3.33097 2.90901 2.90901C3.33097 2.48705 3.90326 2.25 4.5 2.25H31.5ZM4.5 0C3.30653 0 2.16193 0.474106 1.31802 1.31802C0.474106 2.16193 0 3.30653 0 4.5L0 31.5C0 32.6935 0.474106 33.8381 1.31802 34.682C2.16193 35.5259 3.30653 36 4.5 36H31.5C32.6935 36 33.8381 35.5259 34.682 34.682C35.5259 33.8381 36 32.6935 36 31.5V4.5C36 3.30653 35.5259 2.16193 34.682 1.31802C33.8381 0.474106 32.6935 0 31.5 0L4.5 0Z" fill="white"/>
<path id="Vector_2" d="M15.4216 10.4536C15.5263 10.5581 15.6094 10.6822 15.6662 10.8189C15.7229 10.9556 15.7521 11.1021 15.7521 11.2501C15.7521 11.398 15.7229 11.5446 15.6662 11.6812C15.6094 11.8179 15.5263 11.9421 15.4216 12.0466L9.46581 18.0001L15.4216 23.9536C15.6328 24.1648 15.7515 24.4513 15.7515 24.7501C15.7515 25.0488 15.6328 25.3353 15.4216 25.5466C15.2103 25.7578 14.9238 25.8765 14.6251 25.8765C14.3263 25.8765 14.0398 25.7578 13.8286 25.5466L7.07856 18.7966C6.97379 18.6921 6.89067 18.5679 6.83395 18.4312C6.77724 18.2946 6.74805 18.148 6.74805 18.0001C6.74805 17.8521 6.77724 17.7056 6.83395 17.5689C6.89067 17.4322 6.97379 17.3081 7.07856 17.2036L13.8286 10.4536C13.9331 10.3488 14.0572 10.2657 14.1939 10.209C14.3306 10.1522 14.4771 10.123 14.6251 10.123C14.773 10.123 14.9196 10.1522 15.0562 10.209C15.1929 10.2657 15.3171 10.3488 15.4216 10.4536ZM20.5786 10.4536C20.4738 10.5581 20.3907 10.6822 20.334 10.8189C20.2772 10.9556 20.248 11.1021 20.248 11.2501C20.248 11.398 20.2772 11.5446 20.334 11.6812C20.3907 11.8179 20.4738 11.9421 20.5786 12.0466L26.5343 18.0001L20.5786 23.9536C20.3673 24.1648 20.2486 24.4513 20.2486 24.7501C20.2486 25.0488 20.3673 25.3353 20.5786 25.5466C20.7898 25.7578 21.0763 25.8765 21.3751 25.8765C21.6738 25.8765 21.9603 25.7578 22.1716 25.5466L28.9216 18.7966C29.0263 18.6921 29.1094 18.5679 29.1662 18.4312C29.2229 18.2946 29.2521 18.148 29.2521 18.0001C29.2521 17.8521 29.2229 17.7056 29.1662 17.5689C29.1094 17.4322 29.0263 17.3081 28.9216 17.2036L22.1716 10.4536C22.0671 10.3488 21.9429 10.2657 21.8062 10.209C21.6696 10.1522 21.523 10.123 21.3751 10.123C21.2271 10.123 21.0806 10.1522 20.9439 10.209C20.8072 10.2657 20.6831 10.3488 20.5786 10.4536Z" fill="white"/>
</g>
</g>
<defs>
<clipPath id="clip0_12_867">
<rect width="36" height="36" fill="white"/>
</clipPath>
</defs>
</svg>
