<svg width="37" height="37" viewBox="0 0 37 37" fill="none" xmlns="http://www.w3.org/2000/svg">
<g id="bi:whatsapp" clip-path="url(#clip0_12_156)">
<path id="Vector" d="M31.1413 5.73361C29.4909 4.06788 27.5254 2.74729 25.3595 1.84877C23.1936 0.950259 20.8705 0.4918 18.5256 0.500111C8.69981 0.500111 0.692063 8.50561 0.683063 18.3336C0.683063 21.4814 1.50656 24.5436 3.06131 27.2549L0.539062 36.5001L9.99806 34.0206C12.6148 35.4447 15.5464 36.1911 18.5256 36.1919H18.5346C28.3626 36.1919 36.3681 28.1864 36.3771 18.3494C36.3793 16.005 35.9176 13.6833 35.0187 11.5181C34.1197 9.35289 32.8034 7.38698 31.1413 5.73361ZM18.5256 33.1724C15.8683 33.1733 13.2599 32.4582 10.9746 31.1024L10.4346 30.7784L4.82306 32.2499L6.32156 26.7756L5.97056 26.2109C4.48513 23.8491 3.69952 21.1147 3.70481 18.3246C3.70481 10.1661 10.3581 3.51061 18.5346 3.51061C20.4825 3.50712 22.4118 3.88923 24.2114 4.63492C26.0109 5.38061 27.645 6.47512 29.0196 7.85536C30.3989 9.23022 31.4924 10.8646 32.2369 12.6641C32.9814 14.4637 33.3623 16.3929 33.3576 18.3404C33.3486 26.5281 26.6953 33.1724 18.5256 33.1724ZM26.6593 22.0709C26.2161 21.8481 24.0268 20.7704 23.6151 20.6174C23.2056 20.4711 22.9063 20.3946 22.6138 20.8401C22.3146 21.2834 21.4596 22.2936 21.2031 22.5839C20.9466 22.8831 20.6811 22.9169 20.2356 22.6964C19.7923 22.4714 18.3546 22.0034 16.6536 20.4801C15.3261 19.2989 14.4373 17.8364 14.1718 17.3931C13.9153 16.9476 14.1471 16.7091 14.3698 16.4864C14.5656 16.2884 14.8131 15.9644 15.0358 15.7079C15.2608 15.4514 15.3351 15.2624 15.4813 14.9654C15.6276 14.6639 15.5578 14.4074 15.4476 14.1846C15.3351 13.9619 14.4463 11.7636 14.0706 10.8771C13.7106 10.0019 13.3438 10.1234 13.0693 10.1121C12.8128 10.0964 12.5136 10.0964 12.2143 10.0964C11.9883 10.102 11.7659 10.1542 11.5611 10.2499C11.3563 10.3455 11.1735 10.4825 11.0241 10.6521C10.6146 11.0976 9.46931 12.1754 9.46931 14.3736C9.46931 16.5719 11.0668 18.6846 11.2918 18.9839C11.5123 19.2831 14.4283 23.7809 18.9036 25.7159C19.9611 26.1771 20.7936 26.4494 21.4438 26.6564C22.5126 26.9984 23.4778 26.9466 24.2473 26.8364C25.1023 26.7059 26.8821 25.7564 27.2578 24.7146C27.6268 23.6706 27.6268 22.7796 27.5143 22.5929C27.4041 22.4039 27.1048 22.2936 26.6593 22.0709Z" fill="white"/>
</g>
<defs>
<clipPath id="clip0_12_156">
<rect width="36" height="36" fill="white" transform="translate(0.539062 0.5)"/>
</clipPath>
</defs>
</svg>
