<svg width="36" height="37" viewBox="0 0 36 37" fill="none" xmlns="http://www.w3.org/2000/svg">
<path id="Vector" d="M6.46385 14.2452L0.33602 8.1174C0.120856 7.90197 0 7.60994 0 7.30546C0 7.00098 0.120856 6.70895 0.33602 6.49352L6.46385 0.365691C6.56904 0.252806 6.69589 0.162264 6.83682 0.0994662C6.97776 0.0366682 7.12991 0.00290077 7.28418 0.000178812C7.43845 -0.00254315 7.59169 0.0258358 7.73476 0.0836228C7.87783 0.14141 8.00779 0.227421 8.11689 0.336525C8.226 0.445629 8.31201 0.575591 8.36979 0.718658C8.42758 0.861725 8.45596 1.01497 8.45324 1.16924C8.45052 1.32351 8.41675 1.47565 8.35395 1.61659C8.29115 1.75753 8.20061 1.88438 8.08773 1.98957L2.77375 7.30546L8.08773 12.6214C8.20061 12.7265 8.29115 12.8534 8.35395 12.9943C8.41675 13.1353 8.45052 13.2874 8.45324 13.4417C8.45596 13.596 8.42758 13.7492 8.36979 13.8923C8.31201 14.0353 8.226 14.1653 8.11689 14.2744C8.00779 14.3835 7.87783 14.4695 7.73476 14.5273C7.59169 14.5851 7.43845 14.6135 7.28418 14.6107C7.12991 14.608 6.97776 14.5743 6.83682 14.5115C6.69589 14.4487 6.56904 14.3581 6.46385 14.2452ZM14.1236 14.2452C14.3391 14.4604 14.6311 14.5812 14.9356 14.5812C15.2401 14.5812 15.5321 14.4604 15.7475 14.2452L21.8753 8.1174C22.0905 7.90197 22.2114 7.60994 22.2114 7.30546C22.2114 7.00098 22.0905 6.70895 21.8753 6.49352L15.7475 0.365691C15.6423 0.252806 15.5155 0.162264 15.3745 0.0994662C15.2336 0.0366682 15.0815 0.00290077 14.9272 0.000178812C14.7729 -0.00254315 14.6197 0.0258358 14.4766 0.0836228C14.3335 0.14141 14.2036 0.227421 14.0945 0.336525C13.9854 0.445629 13.8994 0.575591 13.8416 0.718658C13.7838 0.861725 13.7554 1.01497 13.7581 1.16924C13.7608 1.32351 13.7946 1.47565 13.8574 1.61659C13.9202 1.75753 14.0108 1.88438 14.1236 1.98957L19.4376 7.30546L14.1236 12.6214C13.9085 12.8368 13.7876 13.1288 13.7876 13.4333C13.7876 13.7378 13.9085 14.0298 14.1236 14.2452ZM33.3191 3.09258H28.7232C28.4185 3.09258 28.1262 3.21363 27.9108 3.4291C27.6953 3.64457 27.5742 3.93682 27.5742 4.24154C27.5742 4.54627 27.6953 4.83851 27.9108 5.05399C28.1262 5.26946 28.4185 5.39051 28.7232 5.39051H33.3191C33.4206 5.39051 33.5181 5.43086 33.5899 5.50269C33.6617 5.57451 33.7021 5.67193 33.7021 5.7735V33.3487C33.7021 33.4503 33.6617 33.5477 33.5899 33.6196C33.5181 33.6914 33.4206 33.7317 33.3191 33.7317H5.74383C5.64226 33.7317 5.54484 33.6914 5.47302 33.6196C5.40119 33.5477 5.36084 33.4503 5.36084 33.3487V21.0931C5.36084 20.7884 5.23979 20.4961 5.02432 20.2806C4.80884 20.0652 4.5166 19.9441 4.21187 19.9441C3.90715 19.9441 3.6149 20.0652 3.39943 20.2806C3.18396 20.4961 3.0629 20.7884 3.0629 21.0931V33.3487C3.0629 34.0598 3.34536 34.7417 3.84813 35.2444C4.3509 35.7472 5.0328 36.0297 5.74383 36.0297H33.3191C34.0301 36.0297 34.712 35.7472 35.2148 35.2444C35.7175 34.7417 36 34.0598 36 33.3487V5.7735C36 5.06248 35.7175 4.38057 35.2148 3.8778C34.712 3.37503 34.0301 3.09258 33.3191 3.09258Z" fill="#BF6D6D"/>
</svg>
