<svg width="28" height="40" viewBox="0 0 28 40" fill="none" xmlns="http://www.w3.org/2000/svg">
<path id="Vector" d="M13.9998 14.0012H8.00011M13.9998 14.0012V2H8.00011C6.40865 2 4.88238 2.6322 3.75705 3.75754C2.63172 4.88287 1.99951 6.40914 1.99951 8.0006C1.99951 9.59206 2.63172 11.1183 3.75705 12.2437C4.88238 13.369 6.40865 14.0012 8.00011 14.0012M13.9998 14.0012V26.0006H8.00011M13.9998 14.0012H19.9995M8.00011 14.0012C6.40889 14.0012 4.88285 14.6333 3.75768 15.7585C2.63252 16.8836 2.00041 18.4097 2.00041 20.0009C2.00041 21.5921 2.63252 23.1182 3.75768 24.2433C4.88285 25.3685 6.40889 26.0006 8.00011 26.0006M8.00011 26.0006C6.81356 26.0006 5.65365 26.3524 4.66704 27.0116C3.68044 27.6708 2.91144 28.6077 2.45728 29.7039C2.00313 30.8001 1.88421 32.0063 2.11556 33.1701C2.34692 34.3339 2.91815 35.4029 3.75705 36.2421C4.59594 37.0812 5.66482 37.6528 6.82853 37.8845C7.99223 38.1162 9.19852 37.9976 10.2949 37.5438C11.3912 37.09 12.3283 36.3213 12.9878 35.3349C13.6473 34.3485 13.9995 33.1887 13.9998 32.0021M19.9995 14.0012C18.4083 14.0012 16.8822 14.6333 15.7571 15.7585C14.6319 16.8836 13.9998 18.4097 13.9998 20.0009C13.9998 21.5921 14.6319 23.1182 15.7571 24.2433C16.8822 25.3685 18.4083 26.0006 19.9995 26.0006C21.5907 26.0006 23.1168 25.3685 24.2419 24.2433C25.3671 23.1182 25.9992 21.5921 25.9992 20.0009C25.9992 18.4097 25.3671 16.8836 24.2419 15.7585C23.1168 14.6333 21.5907 14.0012 19.9995 14.0012ZM19.9995 14.0012C21.591 14.0012 23.1172 13.369 24.2426 12.2437C25.3679 11.1183 26.0001 9.59206 26.0001 8.0006C26.0001 6.40914 25.3679 4.88287 24.2426 3.75754C23.1172 2.6322 21.591 2 19.9995 2" stroke="#BF6D6D" stroke-width="2.25" stroke-linecap="round" stroke-linejoin="round"/>
</svg>
