<svg width="36" height="37" viewBox="0 0 36 37" fill="none" xmlns="http://www.w3.org/2000/svg">
<path id="Vector" d="M35.2526 16.4097H18.7466V21.3237H30.4646C29.8706 28.1817 24.1646 31.1157 18.7646 31.1157C11.8706 31.1157 5.82256 25.6797 5.82256 18.0297C5.82256 10.6497 11.5826 4.94366 18.7826 4.94366C24.3446 4.94366 27.6026 8.48966 27.6026 8.48966L31.0226 4.92566C31.0226 4.92566 26.6306 0.0296631 18.6026 0.0296631C8.37856 0.0296631 0.476562 8.66966 0.476562 18.0297C0.476562 27.1197 7.91056 36.0297 18.8726 36.0297C28.5026 36.0297 35.5226 29.4237 35.5226 19.6677C35.5226 17.5977 35.2526 16.4097 35.2526 16.4097Z" fill="#BF6D6D"/>
</svg>
