<svg width="18" height="11" viewBox="0 0 18 11" fill="none" xmlns="http://www.w3.org/2000/svg">
<path d="M1.74807 5.42597L5.4242 1.22341C5.53751 1.09416 5.60656 0.924197 5.60656 0.737705C5.60656 0.330492 5.27607 0 4.86885 0C4.64813 0 4.44984 0.0973769 4.31469 0.25082L4.3141 0.25141L0.182951 4.97331C0.0696393 5.10256 0 5.27252 0 5.45902C0 5.66262 0.082623 5.84734 0.216 5.98072L4.34715 10.1125C4.48052 10.2458 4.66525 10.3285 4.86885 10.3285C5.27666 10.3285 5.60715 9.99797 5.60715 9.59016C5.60715 9.38597 5.52453 9.20184 5.39056 9.06787L1.74807 5.42597ZM17.8182 4.9739L13.6871 0.25259C13.5513 0.097377 13.3525 0.000590121 13.1317 0.000590121C12.7239 0.000590121 12.3934 0.331082 12.3934 0.738885C12.3934 0.925377 12.4625 1.09593 12.5764 1.22577L12.5758 1.22518L16.2525 5.42715L12.6089 9.06964C12.4755 9.20302 12.3929 9.38774 12.3929 9.59134C12.3929 9.99915 12.7233 10.3296 13.1311 10.3296C13.3348 10.3296 13.5195 10.247 13.6529 10.1136L17.784 5.9819C17.9174 5.84852 18 5.6638 18 5.4602C18 5.2737 17.931 5.10315 17.8165 4.97331L17.817 4.9739H17.8182Z" fill="#BF6D6D"/>
</svg>
