<svg width="36" height="37" viewBox="0 0 36 37" fill="none" xmlns="http://www.w3.org/2000/svg">
<g id="bi:phone" clip-path="url(#clip0_12_108)">
<g id="Group">
<path id="Vector" d="M24.75 2.27966C25.3467 2.27966 25.919 2.51672 26.341 2.93867C26.7629 3.36063 27 3.93293 27 4.52966V31.5297C27 32.1264 26.7629 32.6987 26.341 33.1207C25.919 33.5426 25.3467 33.7797 24.75 33.7797H11.25C10.6533 33.7797 10.081 33.5426 9.65901 33.1207C9.23705 32.6987 9 32.1264 9 31.5297V4.52966C9 3.93293 9.23705 3.36063 9.65901 2.93867C10.081 2.51672 10.6533 2.27966 11.25 2.27966H24.75ZM11.25 0.0296631C10.0565 0.0296631 8.91193 0.503769 8.06802 1.34768C7.22411 2.1916 6.75 3.33619 6.75 4.52966V31.5297C6.75 32.7231 7.22411 33.8677 8.06802 34.7116C8.91193 35.5556 10.0565 36.0297 11.25 36.0297H24.75C25.9435 36.0297 27.0881 35.5556 27.932 34.7116C28.7759 33.8677 29.25 32.7231 29.25 31.5297V4.52966C29.25 3.33619 28.7759 2.1916 27.932 1.34768C27.0881 0.503769 25.9435 0.0296631 24.75 0.0296631L11.25 0.0296631Z" fill="#BF6D6D"/>
<path id="Vector_2" d="M18 31.5297C18.5967 31.5297 19.169 31.2926 19.591 30.8707C20.0129 30.4487 20.25 29.8764 20.25 29.2797C20.25 28.6829 20.0129 28.1106 19.591 27.6887C19.169 27.2667 18.5967 27.0297 18 27.0297C17.4033 27.0297 16.831 27.2667 16.409 27.6887C15.9871 28.1106 15.75 28.6829 15.75 29.2797C15.75 29.8764 15.9871 30.4487 16.409 30.8707C16.831 31.2926 17.4033 31.5297 18 31.5297Z" fill="#BF6D6D"/>
</g>
</g>
<defs>
<clipPath id="clip0_12_108">
<rect width="36" height="36" fill="white" transform="translate(0 0.0296631)"/>
</clipPath>
</defs>
</svg>
