<svg width="42" height="37" viewBox="0 0 42 37" fill="none" xmlns="http://www.w3.org/2000/svg">
<path id="Vector" d="M9.24079 6.98178C12.1693 4.4355 15.8466 2.91107 19.7177 2.63863V6.44305C19.7177 6.78324 19.8528 7.10949 20.0934 7.35004C20.3339 7.59059 20.6602 7.72573 21.0004 7.72573C21.3406 7.72573 21.6668 7.59059 21.9074 7.35004C22.1479 7.10949 22.2831 6.78324 22.2831 6.44305V2.64119C26.3705 2.93424 30.2349 4.61588 33.2352 7.40713C36.2355 10.1984 38.1913 13.9315 38.7783 17.9871H33.8272C33.487 17.9871 33.1607 18.1223 32.9202 18.3628C32.6796 18.6034 32.5445 18.9296 32.5445 19.2698C32.5445 19.61 32.6796 19.9363 32.9202 20.1768C33.1607 20.4174 33.487 20.5525 33.8272 20.5525H38.9579C38.9548 23.0313 38.4507 25.4839 37.476 27.7631C36.5013 30.0422 35.0761 32.1009 33.2859 33.8154C33.0501 34.0514 32.9156 34.37 32.9108 34.7036C32.9061 35.0372 33.0315 35.3595 33.2605 35.6022C33.4894 35.8448 33.8039 35.9887 34.1372 36.0033C34.4705 36.0179 34.7964 35.9021 35.0457 35.6804C37.0902 33.7263 38.7181 31.3786 39.8313 28.7788C40.9445 26.1789 41.52 23.3807 41.5232 20.5525C41.5232 15.1095 39.361 9.88944 35.5122 6.04066C31.6634 2.19188 26.4434 0.0296631 21.0004 0.0296631C15.5574 0.0296631 10.3373 2.19188 6.48854 6.04066C2.63976 9.88944 0.477539 15.1095 0.477539 20.5525C0.477539 26.44 3.0942 31.9427 7.05254 35.6804C7.17517 35.796 7.31936 35.8862 7.47687 35.9461C7.63438 36.0059 7.80214 36.0341 7.97055 36.0291C8.13897 36.0241 8.30476 35.986 8.45844 35.9169C8.61212 35.8478 8.7507 35.7492 8.86625 35.6265C8.9818 35.5039 9.07207 35.3597 9.1319 35.2022C9.19173 35.0447 9.21995 34.8769 9.21494 34.7085C9.20994 34.5401 9.17182 34.3743 9.10274 34.2206C9.03367 34.067 8.93501 33.9284 8.81238 33.8128C5.33889 30.5317 3.04289 25.6909 3.04289 20.5525H8.1736C8.51379 20.5525 8.84004 20.4174 9.08059 20.1768C9.32114 19.9363 9.45628 19.61 9.45628 19.2698C9.45628 18.9296 9.32114 18.6034 9.08059 18.3628C8.84004 18.1223 8.51379 17.9871 8.1736 17.9871H3.22247C3.71184 14.5824 5.17258 11.3911 7.42965 8.79548L11.1135 12.4819C11.3544 12.7227 11.681 12.8581 12.0216 12.8581C12.3623 12.8581 12.6889 12.7227 12.9298 12.4819C13.1706 12.241 13.3059 11.9144 13.3059 11.5738C13.3059 11.2331 13.1706 10.9065 12.9298 10.6656L9.24079 6.98178ZM29.8483 9.79597C30.0814 9.61082 30.3717 9.51253 30.6693 9.51793C30.967 9.52334 31.2535 9.63211 31.4797 9.8256C31.7059 10.0191 31.8578 10.2852 31.9094 10.5784C31.9609 10.8717 31.9088 11.1736 31.762 11.4327L31.4799 11.9355C30.4482 13.7571 29.4101 15.5751 28.3655 17.3894C27.5304 18.8413 26.6838 20.2865 25.8258 21.7249C25.5043 22.266 25.1759 22.8031 24.8407 23.3359C24.5842 23.7387 24.3328 24.1209 24.1481 24.3364C23.4854 25.1127 22.5415 25.594 21.5239 25.6743C20.5064 25.7547 19.4987 25.4275 18.7223 24.7648C17.946 24.1021 17.4648 23.1582 17.3844 22.1407C17.3041 21.1232 17.6312 20.1154 18.2939 19.3391C18.4786 19.1236 18.8147 18.8132 19.1738 18.4977C19.5587 18.1565 20.0538 17.7383 20.6104 17.2689C21.7289 16.3351 23.1296 15.1909 24.4944 14.0878C26.1222 12.771 27.7555 11.4609 29.3942 10.1577L29.8483 9.79597Z" fill="#BF6D6D"/>
</svg>
