<svg width="36" height="37" viewBox="0 0 36 37" fill="none" xmlns="http://www.w3.org/2000/svg">
<g id="Group">
<path id="Vector" fill-rule="evenodd" clip-rule="evenodd" d="M18.8 27.0297H21.5C28.404 27.0297 34 21.4337 34 14.5297C34 7.62566 28.404 2.02966 21.5 2.02966H14.5C7.596 2.02966 2 7.62566 2 14.5297C2 22.5897 6.596 27.4097 11.43 30.3157C13.856 31.7737 16.3 32.7157 18.146 33.2927C18.374 33.3637 18.593 33.4297 18.8 33.4897V27.0297ZM20.8 36.0297C20.8 36.0297 20.036 35.9007 18.8 35.5667C13.59 34.1547 0 29.0797 0 14.5297C0 6.52166 6.492 0.0296631 14.5 0.0296631H21.5C29.508 0.0296631 36 6.52166 36 14.5297C36 22.5377 29.508 29.0297 21.5 29.0297H20.8V36.0297Z" fill="#BF6D6D"/>
<path id="Vector_2" fill-rule="evenodd" clip-rule="evenodd" d="M16.2683 4.89117C17.0408 5.40417 17.6228 6.23592 17.6228 7.35117C17.6228 8.53467 17.1458 9.40467 16.3726 9.93717C16.0673 10.1439 15.7304 10.2994 15.3751 10.3977V11.5467C15.3751 11.845 15.2566 12.1312 15.0456 12.3422C14.8346 12.5531 14.5485 12.6717 14.2501 12.6717C13.9517 12.6717 13.6656 12.5531 13.4546 12.3422C13.2436 12.1312 13.1251 11.845 13.1251 11.5467V9.44892C13.125 9.16349 13.2335 8.88871 13.4284 8.68024C13.6234 8.47177 13.8903 8.3452 14.1751 8.32617C14.5906 8.29842 14.9056 8.21592 15.0953 8.08467C15.1723 8.03372 15.2344 7.96335 15.2753 7.88067C15.3203 7.79067 15.3728 7.63017 15.3728 7.35042C15.3728 7.11567 15.2813 6.93642 15.0226 6.76392C14.7286 6.56892 14.2561 6.42492 13.6883 6.40692C13.1273 6.38892 12.5821 6.49842 12.1808 6.69267C11.7788 6.88767 11.6311 7.10667 11.5898 7.26792C11.5531 7.41103 11.4885 7.5455 11.3998 7.66365C11.3111 7.78181 11.2 7.88134 11.0728 7.95655C10.9457 8.03177 10.8049 8.0812 10.6587 8.10202C10.5124 8.12285 10.3634 8.11466 10.2203 8.07792C10.0772 8.04118 9.94276 7.97662 9.8246 7.88791C9.70644 7.79921 9.60692 7.6881 9.5317 7.56093C9.45649 7.43376 9.40706 7.29302 9.38623 7.14674C9.36541 7.00047 9.3736 6.85153 9.41034 6.70842C9.66909 5.70267 10.4213 5.04567 11.1998 4.66842C11.9798 4.28967 12.8971 4.12992 13.7596 4.15767C14.6168 4.18467 15.5318 4.40067 16.2683 4.89117Z" fill="#BF6D6D"/>
<path id="Vector_3" d="M15.75 15.7797C15.75 16.1775 15.592 16.559 15.3107 16.8403C15.0294 17.1216 14.6478 17.2797 14.25 17.2797C13.8522 17.2797 13.4706 17.1216 13.1893 16.8403C12.908 16.559 12.75 16.1775 12.75 15.7797C12.75 15.3818 12.908 15.0003 13.1893 14.719C13.4706 14.4377 13.8522 14.2797 14.25 14.2797C14.6478 14.2797 15.0294 14.4377 15.3107 14.719C15.592 15.0003 15.75 15.3818 15.75 15.7797Z" fill="#BF6D6D"/>
</g>
</svg>
