<svg width="41" height="37" viewBox="0 0 41 37" fill="none" xmlns="http://www.w3.org/2000/svg">
<path id="Vector" d="M37.5724 0.503686C37.0774 0.539697 36.5916 0.655817 36.1338 0.847515H36.1277C35.6882 1.02174 33.5991 1.90059 30.4229 3.23274L19.041 8.02631C10.8739 11.4646 2.84559 14.8505 2.84559 14.8505L2.94118 14.8135C2.94118 14.8135 2.38766 14.9954 1.80947 15.3917C1.45227 15.619 1.1449 15.9164 0.905958 16.2659C0.62226 16.6822 0.394069 17.319 0.47887 17.9773C0.617635 19.0905 1.33921 19.7581 1.85727 20.1266C2.3815 20.4998 2.88105 20.674 2.88105 20.674H2.89339L10.4222 23.2103C10.7598 24.2942 12.7164 30.7268 13.1867 32.2085C13.4642 33.0935 13.734 33.647 14.0717 34.0695C14.2351 34.2853 14.4263 34.4657 14.6561 34.6107C14.7755 34.6801 14.9028 34.735 15.0353 34.7741L14.9583 34.7556C14.9814 34.7618 14.9999 34.7803 15.0168 34.7864C15.0785 34.8034 15.1201 34.8096 15.1988 34.8219C16.3906 35.1827 17.3481 34.4426 17.3481 34.4426L17.4021 34.3994L21.8472 30.3521L29.2973 36.0677L29.4669 36.1402C31.0196 36.8216 32.5922 36.4424 33.4233 35.7732C34.2605 35.0994 34.5858 34.2375 34.5858 34.2375L34.6398 34.0988L40.397 4.60497C40.5605 3.87722 40.6021 3.19573 40.4217 2.53429C40.2356 1.86486 39.8061 1.28911 39.2175 0.919981C38.7232 0.619501 38.1501 0.474466 37.5724 0.503686ZM37.4166 3.66445C37.4105 3.76159 37.429 3.75079 37.3858 3.93736V3.95432L31.6826 33.1413C31.6579 33.1829 31.6163 33.2739 31.5022 33.3649C31.3819 33.4604 31.2863 33.5206 30.7852 33.3217L21.673 26.3356L16.1686 31.3528L17.325 23.9674L32.2129 10.0908C32.8266 9.52035 32.6215 9.40008 32.6215 9.40008C32.6647 8.70009 31.6949 9.19502 31.6949 9.19502L12.9215 20.8251L12.9153 20.7943L3.91717 17.7645V17.7584L3.89404 17.7538C3.90981 17.7485 3.92526 17.7423 3.94029 17.7353L3.98963 17.7106L4.03743 17.6936C4.03743 17.6936 12.0719 14.3077 20.239 10.8695C24.328 9.14722 28.4478 7.41266 31.6163 6.07434C33.4954 5.28338 35.3764 4.49705 37.2594 3.71533C37.3858 3.66599 37.3257 3.66445 37.4166 3.66445Z" fill="white"/>
</svg>
