<svg width="41" height="36" viewBox="0 0 41 36" fill="none" xmlns="http://www.w3.org/2000/svg">
<path id="Vector" d="M6.36586 14.4H35.1407C35.5717 14.4022 35.9978 14.3076 36.3875 14.1231C36.7771 13.9387 37.1204 13.6691 37.392 13.3343C37.6635 12.9995 37.8565 12.608 37.9566 12.1887C38.0567 11.7694 38.0613 11.333 37.9703 10.9116C36.6329 4.59 29.3933 0 20.7533 0C12.1133 0 4.87366 4.59 3.53626 10.9116C3.44519 11.333 3.44987 11.7694 3.54996 12.1887C3.65005 12.608 3.843 12.9995 4.11457 13.3343C4.38614 13.6691 4.72941 13.9387 5.11905 14.1231C5.50869 14.3076 5.93477 14.4022 6.36586 14.4ZM20.7533 2.88C27.9209 2.88 34.1111 6.5898 35.1407 11.52H6.36586L6.35326 11.5074C7.39546 6.5898 13.5857 2.88 20.7533 2.88ZM38.9801 23.1264L31.5767 25.8264L24.8933 23.1426C24.5501 23.0054 24.1673 23.0054 23.8241 23.1426L17.1641 25.8084L10.4933 23.1426C10.1649 23.0114 9.79965 23.0056 9.46726 23.1264L1.54726 26.0064C1.21253 26.1537 0.946396 26.4229 0.802887 26.7593C0.659378 27.0957 0.649244 27.4741 0.774541 27.8177C0.899839 28.1613 1.15118 28.4444 1.47755 28.6094C1.80392 28.7744 2.18086 28.8091 2.53186 28.7064L4.91326 27.8442V28.8C4.91326 30.7096 5.67183 32.5409 7.02209 33.8912C8.37236 35.2414 10.2037 36 12.1133 36H29.3933C31.3028 36 33.1342 35.2414 34.4844 33.8912C35.8347 32.5409 36.5933 30.7096 36.5933 28.8V27.0594L39.9647 25.8336C40.1537 25.7783 40.3294 25.6848 40.4809 25.5588C40.6323 25.4329 40.7563 25.2772 40.8452 25.1014C40.9341 24.9256 40.986 24.7335 40.9977 24.5369C41.0093 24.3402 40.9805 24.1433 40.9131 23.9582C40.8456 23.7732 40.7408 23.6039 40.6053 23.461C40.4698 23.318 40.3064 23.2044 40.1252 23.1271C39.9441 23.0498 39.749 23.0105 39.552 23.0116C39.355 23.0127 39.1603 23.0542 38.9801 23.1336V23.1264ZM33.7133 28.8C33.7133 29.9457 33.2581 31.0445 32.448 31.8547C31.6378 32.6649 30.539 33.12 29.3933 33.12H12.1133C10.9675 33.12 9.86872 32.6649 9.05856 31.8547C8.2484 31.0445 7.79326 29.9457 7.79326 28.8V26.7984L9.92986 26.0208L16.6133 28.6974C16.9565 28.8346 17.3393 28.8346 17.6825 28.6974L24.3425 26.0316L31.0025 28.6974C31.3309 28.8286 31.6961 28.8344 32.0285 28.7136L33.6971 28.107L33.7133 28.8ZM0.593262 18.72C0.593262 18.3381 0.744976 17.9718 1.01503 17.7018C1.28508 17.4317 1.65135 17.28 2.03326 17.28H39.4733C39.8552 17.28 40.2214 17.4317 40.4915 17.7018C40.7616 17.9718 40.9133 18.3381 40.9133 18.72C40.9133 19.1019 40.7616 19.4682 40.4915 19.7382C40.2214 20.0083 39.8552 20.16 39.4733 20.16H2.03326C1.65135 20.16 1.28508 20.0083 1.01503 19.7382C0.744976 19.4682 0.593262 19.1019 0.593262 18.72Z" fill="white"/>
</svg>
